<svg fill="#3B7AFB" xmlns="http://www.w3.org/2000/svg" xmlns:xlink="http://www.w3.org/1999/xlink" version="1.1" x="0px" y="0px" viewBox="0 0 100 100" style="enable-background:new 0 0 100 100;" xml:space="preserve"><g><path d="M49,17.6c-6.9,0-12.6,5.6-12.6,12.6v39.6c0,6.9,5.6,12.6,12.6,12.6c6.9,0,12.6-5.6,12.6-12.6V30.2   C61.6,23.3,55.9,17.6,49,17.6z M49,80.4c-5.8,0-10.6-4.7-10.6-10.6V51h21.2v18.8C59.6,75.6,54.8,80.4,49,80.4z M59.6,49H38.4V30.2   c0-5.8,4.7-10.6,10.6-10.6c5.8,0,10.6,4.7,10.6,10.6V49z"></path><path d="M49,22.3c-4.4,0-7.9,3.5-7.9,7.9c0,0.6,0.4,1,1,1s1-0.4,1-1c0-3.3,2.6-5.9,5.9-5.9c0.6,0,1-0.4,1-1S49.6,22.3,49,22.3z"></path><path d="M42.1,13.8c0.2,0,0.5,0,0.7-0.1c0.7-0.2,1.3-0.7,1.7-1.3c0.8-1.3,0.3-3.1-1-3.8L40.9,7c0,0,0,0,0,0s0,0,0,0l-2.7-1.6   c-1.3-0.8-3.1-0.3-3.8,1c-0.4,0.6-0.5,1.4-0.3,2.1c0.2,0.7,0.7,1.3,1.3,1.7l5.3,3.1C41.2,13.7,41.7,13.8,42.1,13.8z M42.9,10.8   c0.1,0.2,0,0.4-0.1,0.6c-0.1,0.2-0.3,0.3-0.5,0.4c-0.2,0.1-0.4,0-0.6-0.1l-1.8-1.1l0.8-1.4l1.8,1.1C42.7,10.4,42.9,10.6,42.9,10.8z    M36,8.1c-0.1-0.2,0-0.4,0.1-0.6v0c0.1-0.2,0.3-0.3,0.5-0.4c0.1,0,0.1,0,0.2,0c0.1,0,0.3,0,0.4,0.1L39,8.2l-0.8,1.4l-1.8-1.1   C36.2,8.5,36.1,8.3,36,8.1z"></path><path d="M21.6,55.5L18,52.9c0,0,0,0,0,0s0,0,0,0l-3.7-2.5c-0.8-0.5-1.8-0.8-2.7-0.6c-0.9,0.2-1.8,0.7-2.3,1.5   C8.8,52.1,8.5,53,8.7,54c0.2,0.9,0.7,1.8,1.5,2.3l7.3,5.1c0.6,0.4,1.3,0.6,2.1,0.6c1.1,0,2.3-0.5,3-1.6   C23.7,58.8,23.3,56.6,21.6,55.5z M10.7,53.6c-0.1-0.4,0-0.8,0.3-1.2v0c0.2-0.4,0.6-0.6,1-0.7c0.1,0,0.2,0,0.3,0   c0.3,0,0.6,0.1,0.9,0.3l2.8,2l-1.8,2.6l-2.8-2C11,54.4,10.8,54,10.7,53.6z M20.9,59.3c-0.5,0.7-1.5,0.9-2.2,0.4l-2.8-2l1.8-2.6   l2.8,2C21.2,57.6,21.4,58.6,20.9,59.3z"></path><path d="M81.1,77.4c-4.1-2-9-0.4-11.1,3.7c-2,4.1-0.4,9,3.7,11.1c1.2,0.6,2.4,0.9,3.7,0.9c0.9,0,1.8-0.1,2.6-0.4   c2.1-0.7,3.8-2.2,4.8-4.1c1-2,1.2-4.2,0.5-6.3S83.1,78.4,81.1,77.4z M80.2,79.2c1.5,0.7,2.6,2,3.1,3.6c0.4,1.3,0.4,2.6,0,3.8   l-11-5.5C74.1,78.7,77.4,77.8,80.2,79.2z M79.4,90.7c-1.6,0.5-3.3,0.4-4.8-0.3c-2.8-1.4-4.1-4.6-3.2-7.5l11,5.5   C81.7,89.5,80.6,90.3,79.4,90.7z"></path><path d="M31.1,85.4c-2.4-1.5-5.5-0.8-7,1.6c-1.5,2.4-0.8,5.5,1.6,7c0.8,0.5,1.8,0.8,2.7,0.8c1.7,0,3.3-0.8,4.3-2.3   C34.2,90,33.5,86.9,31.1,85.4z M25.8,88c0.6-0.9,1.6-1.4,2.6-1.4c0.2,0,0.5,0,0.7,0.1L26,91.6C25.3,90.6,25.1,89.2,25.8,88z    M31,91.3c-0.7,1.1-2,1.6-3.3,1.3l3.1-4.9C31.6,88.8,31.7,90.2,31,91.3z"></path><path d="M74.8,41.4c-2.2,1.9-2.4,5.2-0.5,7.4c1,1.2,2.5,1.8,4,1.8c1.2,0,2.4-0.4,3.4-1.3c2.2-1.9,2.4-5.2,0.5-7.4   C80.3,39.7,77,39.5,74.8,41.4z M76.1,42.9c0.6-0.5,1.4-0.8,2.1-0.8c0.6,0,1.2,0.2,1.7,0.5l-4.7,4C74.7,45.3,75,43.8,76.1,42.9z    M80.3,47.8c-1.1,0.9-2.6,1-3.8,0.3l4.7-4C81.7,45.3,81.4,46.9,80.3,47.8z"></path><path d="M74.8,22.7c0.4,0.1,0.8,0.1,1.1,0.1c1.2,0,2.3-0.4,3.4-1c1.3-0.9,2.2-2.3,2.5-3.8c0.3-1.6,0-3.2-0.9-4.5S78.6,11.3,77,11   c-1.6-0.3-3.2,0-4.5,0.9c-1.3,0.9-2.2,2.3-2.5,3.8c-0.3,1.6,0,3.2,0.9,4.5C71.9,21.5,73.2,22.4,74.8,22.7z M79.8,17.6   c-0.2,1-0.8,2-1.7,2.6s-1.9,0.8-3,0.6c-0.7-0.1-1.3-0.5-1.9-0.9l6.4-4.3C79.9,16.2,80,16.9,79.8,17.6z M72,16.1   c0.2-1,0.8-2,1.7-2.6c0.9-0.6,1.9-0.8,3-0.6c0.7,0.1,1.3,0.5,1.9,0.9l-6.4,4.3C71.9,17.5,71.9,16.8,72,16.1z"></path><path d="M18.8,26.9c0.4,0,0.7,0,1.1-0.1c4.5-0.6,7.7-4.7,7.1-9.3c-0.6-4.5-4.7-7.7-9.3-7.1c-4.5,0.6-7.7,4.7-7.1,9.3   C11.2,23.8,14.7,26.9,18.8,26.9z M19.6,24.8c-3.1,0.4-5.9-1.5-6.8-4.4l12.2-1.6C25,21.8,22.7,24.4,19.6,24.8z M18,12.4   c0.3,0,0.5-0.1,0.8-0.1c2.8,0,5.2,1.8,6,4.5l-12.2,1.6C12.7,15.4,14.9,12.8,18,12.4z"></path><path d="M21,41.1c0.2,0.2,0.5,0.3,0.7,0.3s0.5-0.1,0.7-0.3l1.1-1.1l1.2,1.2c0.2,0.2,0.5,0.3,0.7,0.3s0.5-0.1,0.7-0.3   c0.4-0.4,0.4-1,0-1.4l-1.2-1.2l1.1-1.1c0.4-0.4,0.4-1,0-1.4s-1-0.4-1.4,0l-1.1,1.1L22.3,36c-0.4-0.4-1-0.4-1.4,0s-0.4,1,0,1.4   l1.2,1.2L21,39.7C20.6,40.1,20.6,40.7,21,41.1z"></path><path d="M14.8,77.1l1.1-1.1c0.4-0.4,0.4-1,0-1.4s-1-0.4-1.4,0l-1.1,1.1l-1.2-1.2c-0.4-0.4-1-0.4-1.4,0s-0.4,1,0,1.4l1.2,1.2   l-1.1,1.1c-0.4,0.4-0.4,1,0,1.4c0.2,0.2,0.5,0.3,0.7,0.3s0.5-0.1,0.7-0.3l1.1-1.1l1.2,1.2c0.2,0.2,0.5,0.3,0.7,0.3s0.5-0.1,0.7-0.3   c0.4-0.4,0.4-1,0-1.4L14.8,77.1z"></path><path d="M69.3,67.3c0.2,0.2,0.5,0.3,0.7,0.3s0.5-0.1,0.7-0.3l1.1-1.1l1.2,1.2c0.2,0.2,0.5,0.3,0.7,0.3s0.5-0.1,0.7-0.3   c0.4-0.4,0.4-1,0-1.4l-1.2-1.2l1.1-1.1c0.4-0.4,0.4-1,0-1.4s-1-0.4-1.4,0l-1.1,1.1l-1.2-1.2c-0.4-0.4-1-0.4-1.4,0s-0.4,1,0,1.4   l1.2,1.2l-1.1,1.1C68.9,66.2,68.9,66.9,69.3,67.3z"></path><path d="M90.7,31.2c0.2,0.2,0.5,0.3,0.7,0.3s0.5-0.1,0.7-0.3c0.4-0.4,0.4-1,0-1.4l-1.2-1.2l1.1-1.1c0.4-0.4,0.4-1,0-1.4   c-0.4-0.4-1-0.4-1.4,0l-1.1,1.1L88.3,26c-0.4-0.4-1-0.4-1.4,0s-0.4,1,0,1.4l1.2,1.2L87,29.7c-0.4,0.4-0.4,1,0,1.4   c0.2,0.2,0.5,0.3,0.7,0.3s0.5-0.1,0.7-0.3l1.1-1.1L90.7,31.2z"></path><path d="M92.1,69.2v-0.7h0.6c0.6,0,1-0.4,1-1s-0.4-1-1-1h-0.6v-0.7c0-0.6-0.4-1-1-1s-1,0.4-1,1v0.7h-0.6c-0.6,0-1,0.4-1,1   s0.4,1,1,1h0.6v0.7c0,0.6,0.4,1,1,1S92.1,69.8,92.1,69.2z"></path><path d="M54.9,88.8h-0.6v-0.7c0-0.6-0.4-1-1-1s-1,0.4-1,1v0.7h-0.6c-0.6,0-1,0.4-1,1s0.4,1,1,1h0.6v0.7c0,0.6,0.4,1,1,1s1-0.4,1-1   v-0.7h0.6c0.6,0,1-0.4,1-1S55.4,88.8,54.9,88.8z"></path><path d="M89.5,9.4h0.6v0.7c0,0.6,0.4,1,1,1s1-0.4,1-1V9.4h0.6c0.6,0,1-0.4,1-1s-0.4-1-1-1h-0.6V6.6c0-0.6-0.4-1-1-1s-1,0.4-1,1v0.7   h-0.6c-0.6,0-1,0.4-1,1S88.9,9.4,89.5,9.4z"></path><path d="M7,5.7H6.4V4.9c0-0.6-0.4-1-1-1s-1,0.4-1,1v0.7H3.8c-0.6,0-1,0.4-1,1s0.4,1,1,1h0.6v0.7c0,0.6,0.4,1,1,1s1-0.4,1-1V7.7H7   c0.6,0,1-0.4,1-1S7.6,5.7,7,5.7z"></path><path d="M96,93.1h-0.6v-0.7c0-0.6-0.4-1-1-1s-1,0.4-1,1v0.7h-0.6c-0.6,0-1,0.4-1,1s0.4,1,1,1h0.6v0.7c0,0.6,0.4,1,1,1s1-0.4,1-1   v-0.7H96c0.6,0,1-0.4,1-1S96.6,93.1,96,93.1z"></path><path d="M7,92.9H6.4v-0.7c0-0.6-0.4-1-1-1s-1,0.4-1,1v0.7H3.8c-0.6,0-1,0.4-1,1s0.4,1,1,1h0.6v0.7c0,0.6,0.4,1,1,1s1-0.4,1-1v-0.7   H7c0.6,0,1-0.4,1-1S7.6,92.9,7,92.9z"></path><circle cx="23.5" cy="68.5" r="1.1"></circle><circle cx="31.5" cy="79" r="1.1"></circle><circle cx="5.4" cy="65.5" r="1.1"></circle><circle cx="83.8" cy="58.9" r="1.1"></circle><circle cx="9.3" cy="36.5" r="1.1"></circle><circle cx="60.1" cy="8.4" r="1.1"></circle><circle cx="92.8" cy="50" r="1.1"></circle><circle cx="68.9" cy="31.2" r="1.1"></circle></g></svg>