<svg fill="#0E4DCE" xmlns="http://www.w3.org/2000/svg" xmlns:xlink="http://www.w3.org/1999/xlink" version="1.1" x="0px" y="0px" viewBox="0 0 100 100" style="enable-background:new 0 0 100 100;" xml:space="preserve"><style type="text/css">
	.st0{fill:none;stroke:#0E4DCE;stroke-width:2;stroke-linecap:round;stroke-miterlimit:10;}
	.st1{fill:none;stroke:#0E4DCE;stroke-width:2;stroke-linecap:round;stroke-linejoin:round;stroke-miterlimit:10;}
	.st2{stroke:#0E4DCE;stroke-width:2;stroke-linecap:round;stroke-linejoin:round;stroke-miterlimit:10;}
	.st3{fill:none;stroke:#0E4DCE;stroke-width:2;stroke-miterlimit:10;}
</style><path d="M82.9,27.4c1.3,0,2.6-0.5,3.6-1.4c2.1-2,2.3-5.3,0.3-7.5c-2-2.1-5.3-2.3-7.5-0.3c-2.1,2-2.3,5.3-0.3,7.5  C80,26.8,81.5,27.4,82.9,27.4z M80.5,24.3c-1-1.1-1.1-2.6-0.4-3.8l4.2,4.5C83,25.6,81.5,25.4,80.5,24.3z M85.3,19.9  c1,1.1,1.1,2.6,0.4,3.8l-4.2-4.5C82.7,18.6,84.3,18.8,85.3,19.9z"></path><path d="M32.2,72.6L32.2,72.6c-1,1-1.6,2.3-1.7,3.7C30.5,77.7,31,79,32,80s2.3,1.6,3.7,1.7c0.1,0,0.1,0,0.2,0c1.3,0,2.6-0.5,3.6-1.4  c1-1,1.6-2.3,1.7-3.7c0.1-1.4-0.4-2.8-1.4-3.8C37.7,70.7,34.4,70.6,32.2,72.6z M38.2,74.2c0.6,0.6,0.9,1.5,0.9,2.3  c0,0.5-0.2,1-0.4,1.5l-4.2-4.5C35.7,72.9,37.2,73.2,38.2,74.2z M35.7,79.7c-0.9,0-1.7-0.4-2.3-1c-0.6-0.6-0.9-1.5-0.9-2.3  c0-0.5,0.2-1,0.4-1.5l4.2,4.5C36.7,79.6,36.2,79.7,35.7,79.7z"></path><path d="M54.4,66l-6,8.1c-0.6,0.8-0.8,1.8-0.7,2.8s0.7,1.9,1.5,2.4c0.6,0.5,1.4,0.7,2.2,0.7c0.2,0,0.4,0,0.6,0  c1-0.1,1.9-0.7,2.4-1.5l6-8.1c0,0,0,0,0,0c1.2-1.7,0.9-4-0.8-5.2C57.9,64,55.6,64.3,54.4,66z M52.8,77.3c-0.3,0.4-0.7,0.6-1.1,0.7  c-0.5,0.1-0.9,0-1.3-0.3c-0.4-0.3-0.6-0.7-0.7-1.1s0-0.9,0.3-1.3l2.4-3.2l2.8,2.1L52.8,77.3z M58.8,69.2l-2.4,3.2l-2.8-2.1l2.4-3.2  c0.3-0.5,0.9-0.7,1.4-0.7c0.4,0,0.7,0.1,1,0.3C59.2,67.4,59.3,68.5,58.8,69.2z"></path><path d="M37.9,56.9l-9.7,2.8c-1,0.3-1.8,0.9-2.2,1.8c-0.5,0.9-0.6,1.9-0.3,2.8c0.3,1,0.9,1.8,1.8,2.2c0.6,0.3,1.2,0.5,1.8,0.5  c0.3,0,0.7,0,1-0.1l9.7-2.8c1-0.3,1.8-0.9,2.2-1.8c0.5-0.9,0.6-1.9,0.3-2.8C41.9,57.5,39.8,56.3,37.9,56.9z M29.7,65  c-0.4,0.1-0.9,0.1-1.3-0.2c-0.4-0.2-0.7-0.6-0.8-1c-0.1-0.4-0.1-0.9,0.2-1.3c0.2-0.4,0.6-0.7,1-0.8l3.9-1.1l1,3.3L29.7,65z   M40.4,61.3c-0.2,0.4-0.6,0.7-1,0.8h0l-3.9,1.1l-1-3.3l3.9-1.1c0.2,0,0.3-0.1,0.5-0.1c0.8,0,1.5,0.5,1.7,1.3  C40.7,60.5,40.6,60.9,40.4,61.3z"></path><path d="M87.1,31.5c-2-0.4-4,0.9-4.4,2.9l-2.1,9.8c-0.2,1,0,2,0.5,2.8c0.5,0.8,1.4,1.4,2.4,1.6c0.3,0.1,0.5,0.1,0.8,0.1  c1.7,0,3.3-1.2,3.7-3L90,36C90.4,33.9,89.1,31.9,87.1,31.5z M86.3,33.4c0.1,0,0.2,0,0.4,0c0.9,0.2,1.5,1.1,1.3,2.1l-0.8,3.9  l-3.4-0.7l0.8-3.9C84.8,34,85.5,33.4,86.3,33.4z M83.9,46.7c-0.5-0.1-0.8-0.4-1.1-0.8c-0.3-0.4-0.3-0.9-0.2-1.3l0.8-3.9l3.4,0.7  l-0.8,3.9C85.7,46.3,84.8,46.9,83.9,46.7z"></path><path d="M35.8,32.4h4.1v4.1c0,0.6,0.4,1,1,1s1-0.4,1-1v-4.1h4.1c0.6,0,1-0.4,1-1s-0.4-1-1-1h-4.1v-4.1c0-0.6-0.4-1-1-1s-1,0.4-1,1  v4.1h-4.1c-0.6,0-1,0.4-1,1S35.3,32.4,35.8,32.4z"></path><path d="M71.1,11.2C70.9,11,70.6,11,70.4,11l-37,4.8c0,0-0.1,0-0.1,0H13.1c-0.6,0-1,0.4-1,1v70.6c0,0.6,0.4,1,1,1h54.1  c0.6,0,1-0.4,1-1v-6.2l10.7-1.3c0.5-0.1,0.9-0.6,0.9-1.1l-8.3-67C71.5,11.6,71.3,11.4,71.1,11.2z M66.2,86.5H14.1V17.8h52.1V86.5z   M68.2,79.2V16.8c0-0.6-0.4-1-1-1H48.6l21.1-2.7l8.1,65L68.2,79.2z"></path><path d="M21.3,46.6H59c0.6,0,1-0.4,1-1s-0.4-1-1-1H21.3c-0.6,0-1,0.4-1,1S20.8,46.6,21.3,46.6z"></path><path d="M21.3,53.2H59c0.6,0,1-0.4,1-1s-0.4-1-1-1H21.3c-0.6,0-1,0.4-1,1S20.8,53.2,21.3,53.2z"></path></svg>