<svg fill="#FFFFFF" xmlns="http://www.w3.org/2000/svg" xmlns:xlink="http://www.w3.org/1999/xlink" version="1.1" x="0px" y="0px" viewBox="0 0 56 56" style="enable-background:new 0 0 56 56;" xml:space="preserve"><style type="text/css">
	.st0{fill:none;stroke:#FFFFFF;stroke-width:2;stroke-linejoin:round;stroke-miterlimit:10;}
	.st1{fill:#FFFFFF;}
	.st2{fill:none;stroke:#FFFFFF;stroke-width:2;stroke-miterlimit:10;}
</style><g><g><g><path d="M27.4267082,44.3117676c-0.2490234,0-0.4448242-0.0166016-0.565918-0.0273438     c-7.3198242-0.6337891-10.8510742-1.7646484-10.9980469-1.8125c-2.3452148-0.7636719-4.6499023-1.7294922-6.8540039-2.8730469     c-0.9121094-0.0273438-1.4218755-0.0546875-1.9331059-0.0825195c-0.5366211-0.0292969-1.074707-0.0581055-2.1044922-0.0874023     l-0.9716794-0.0273438v-9.65625l1.0180662,0.0185547c0.9536133,0.0175781,1.4213867,0.0375977,1.8886719,0.0571289     c0.4086914,0.0175781,0.8168945,0.0351563,1.5659184,0.050293c2.6074219-1.4702148,5.2988281-2.2705078,8.003418-2.378418     c2.3798828-0.0996094,5.0097656,0.6425781,9.809082,1.9790039c0.6875,0.1918945,2.78125,0.7749023,7.2387695,2.2207031l0,0     c2.668457,0.8652344,5.3618164,1.7739258,8.0048828,2.7016602l0.8364258,0.293457l-0.190918,0.8657227     c-0.2172852,0.984375-0.6860352,1.902832-1.3549805,2.6567383c-0.4272461,0.4814453-1.5620117,1.7617188-3.4829102,1.9648438     c-0.5473633,0.0571289-1.1049805,0.0205078-1.6577148-0.1098633l-0.6625977-0.1123047     c-2.1816406,1.6303711-3.8828125,2.8662109-4.699707,3.4443359c-0.1689453,0.1201172-0.6196289,0.4394531-1.2905273,0.6630859     C28.4105949,44.2644043,27.8437004,44.3117676,27.4267082,44.3117676z M5.9994617,37.4621582     c0.4824219,0.019043,0.8334961,0.0380859,1.1845703,0.0571289c0.5390625,0.0292969,1.0771489,0.0581055,2.1113286,0.0874023     l0.2319336,0.0063477l0.2050781,0.1079102c2.1669922,1.1381836,4.4379883,2.0966797,6.75,2.8496094     c0.0332031,0.0107422,3.4941406,1.1103516,10.5507813,1.7216797c0.2304688,0.019043,0.7724609,0.0664063,1.3608398-0.1298828     c0.3876953-0.1289063,0.6425781-0.3095703,0.7651367-0.3964844c0.6020508-0.4267578,1.6918945-1.215332,3.1044922-2.2592773     l-11.6074219-1.9902344l0.3378906-1.9716797l0.0019531,0.0004883l15.0800781,2.5610352     c0.3950195,0.090332,0.7255859,0.1142578,1.0493164,0.0795898c1.1494141-0.1210938,1.8833008-0.9492188,2.1972656-1.3032227     c0.2509766-0.2827148,0.4560547-0.5927734,0.6137695-0.9257813c-2.3286133-0.8100586-4.6889648-1.6025391-7.0302734-2.3618164     l0,0c-2.9311523-0.9506836-5.3398438-1.6899414-7.1586914-2.1962891     c-4.9511719-1.3793945-7.2124023-1.9785156-9.1918945-1.9077148c-2.4604492,0.0986328-4.9248047,0.8554688-7.3242188,2.2504883     l-0.2412109,0.1401367L8.7108879,31.876709c-0.954102-0.0175781-1.4218755-0.0375977-1.8896489-0.0571289     c-0.2485352-0.0107422-0.496582-0.0214844-0.8217773-0.03125V37.4621582z"></path></g></g><g><g><path d="M41.5155754,36.2526855l-1.1259766-1.6533203c6.9941406-4.7612305,8.6235352-5.6118164,9.262207-5.8212891     c0.1210938-0.0385742,0.2021484-0.074707,0.2563477-0.1040039c-0.2744141-0.1118164-0.7910156-0.203125-1.0957031-0.2568359     c-0.7983398-0.1416016-1.6220703-0.1411133-2.4526367,0.0004883c-0.7651367,0.1293945-1.3139648,0.3364258-1.5776367,0.4355469     c-3.6171875,1.3613281-5.800293,2.1826172-6.4360352,2.4848633c-1.4916992,0.7094727-2.9584961,1.5087891-4.3598633,2.3764648     l-1.0527344-1.7001953c1.4638672-0.9067383,2.9956055-1.7416992,4.5537109-2.4824219     c0.684082-0.3251953,2.4082031-0.9770508,6.590332-2.550293c0.296875-0.1118164,0.9926758-0.3740234,1.9477539-0.5356445     c1.0581055-0.1801758,2.1123047-0.1791992,3.1323242,0.0009766c0.9594727,0.1694336,2.2695313,0.4013672,2.7119141,1.4921875     c0.2963867,0.730957,0.0102539,1.3945313-0.0844727,1.5805664c-0.277832,0.5385742-0.7817383,0.9257813-1.5,1.1552734     C49.8632317,30.8137207,48.1776848,31.717041,41.5155754,36.2526855z"></path></g></g><g><g><path d="M33.0106926,29.2531738c-0.9970703,0-1.9326172-0.3999023-2.6342773-1.1264648     c-1.4257813-1.4770508-1.4257813-3.8798828,0-5.3564453l9.1918945-9.5200195     c1.4023438-1.453125,3.8657227-1.4536133,5.269043,0.0004883c1.425293,1.4760742,1.425293,3.8789063,0,5.3554688     c-0.0004883,0-0.0004883,0-0.0004883,0.0004883l-9.1918945,9.5200195     C34.9433098,28.8532715,34.0077629,29.2531738,33.0106926,29.2531738z M42.2025871,14.123291     c-0.449707,0-0.8740234,0.1835938-1.1953125,0.5161133l-9.1923828,9.5205078     c-0.6860352,0.7104492-0.6860352,1.8666992,0.0004883,2.5776367c0.6416016,0.6650391,1.7485352,0.6655273,2.3911133-0.0004883     l9.1918945-9.5200195l-0.0004883,0.0004883c0.6865234-0.7109375,0.6865234-1.8671875,0.0004883-2.5776367     C43.0766106,14.3068848,42.6522942,14.123291,42.2025871,14.123291z M44.1176262,17.9118652h0.0097656H44.1176262z"></path></g></g><g><g><path d="M39.5214348,23.6716309c-0.2617188,0-0.5229492-0.1020508-0.7192383-0.3051758l-3.8300781-3.9667969     c-0.3837891-0.3974609-0.3725586-1.0307617,0.0244141-1.4140625c0.3979492-0.3833008,1.0307617-0.3720703,1.4140625,0.0244141     l3.8300781,3.9667969c0.3837891,0.3974609,0.3725586,1.0307617-0.0244141,1.4140625     C40.0219231,23.5783691,39.7714348,23.6716309,39.5214348,23.6716309z"></path></g></g><g><g><path d="M23.9994621,23.6882324c-3.3085938,0-6-2.6914063-6-6s2.6914063-6,6-6s6,2.6914063,6,6     S27.3080559,23.6882324,23.9994621,23.6882324z M23.9994621,13.6882324c-2.2055664,0-4,1.7944336-4,4s1.7944336,4,4,4     s4-1.7944336,4-4S26.2050285,13.6882324,23.9994621,13.6882324z"></path></g></g><g><g><path d="M20.4638176,22.223877c-0.2558594,0-0.5117188-0.0976563-0.7070313-0.2929688     c-0.390625-0.390625-0.390625-1.0234375,0-1.4140625l7.0708008-7.0712891c0.390625-0.390625,1.0234375-0.390625,1.4140625,0     s0.390625,1.0234375,0,1.4140625l-7.0708008,7.0712891C20.9755363,22.1262207,20.719677,22.223877,20.4638176,22.223877z"></path></g></g></g></svg>