<svg fill="#F9E2E1" xmlns="http://www.w3.org/2000/svg" xmlns:xlink="http://www.w3.org/1999/xlink" version="1.1" x="0px" y="0px" viewBox="0 0 100 100" enable-background="new 0 0 100 100" xml:space="preserve"><path d="M73.996,40.856c-1.946-1.945-4.533-3.017-7.284-3.017s-5.338,1.072-7.282,3.017c-1.946,1.946-3.018,4.533-3.018,7.285  c0,2.751,1.071,5.338,3.018,7.282c1.944,1.946,4.531,3.018,7.282,3.018s5.338-1.071,7.284-3.018  C78.01,51.409,78.01,44.875,73.996,40.856z M59.412,48.142c0-1.95,0.76-3.784,2.139-5.164c1.379-1.379,3.211-2.138,5.161-2.138  c1.44,0,2.815,0.417,3.991,1.188L60.601,52.132C59.829,50.955,59.412,49.581,59.412,48.142z M71.875,53.303  c-1.38,1.379-3.213,2.139-5.163,2.139c-1.439,0-2.814-0.417-3.99-1.188L72.824,44.15C74.671,46.981,74.356,50.821,71.875,53.303z   M58.438,66.712c0-2.751-1.071-5.338-3.017-7.283c-1.944-1.946-4.53-3.018-7.282-3.018c-2.751,0-5.338,1.071-7.286,3.018  c-1.943,1.945-3.014,4.532-3.014,7.283s1.07,5.337,3.015,7.282c1.947,1.946,4.534,3.018,7.285,3.018  c2.752,0,5.338-1.072,7.281-3.018C57.367,72.05,58.438,69.463,58.438,66.712z M40.84,66.712c0-1.95,0.759-3.784,2.136-5.162  c1.38-1.379,3.214-2.139,5.164-2.139c1.439,0,2.813,0.416,3.989,1.188L42.026,70.701C41.256,69.525,40.84,68.151,40.84,66.712z   M44.146,72.823L54.25,62.72c0.771,1.178,1.188,2.553,1.188,3.992c0,1.95-0.76,3.782-2.14,5.162  c-1.377,1.378-3.209,2.138-5.159,2.138C46.699,74.012,45.324,73.595,44.146,72.823z M52.938,40.572  c4.011-4.015,4.011-10.548-0.001-14.566c-1.947-1.946-4.534-3.017-7.286-3.017c-2.752,0-5.338,1.072-7.284,3.018L26.005,38.368  c-4.015,4.015-4.016,10.55,0,14.57c1.945,1.943,4.532,3.014,7.283,3.014s5.337-1.07,7.283-3.015L52.938,40.572z M40.489,28.127  c1.378-1.379,3.212-2.139,5.162-2.139s3.785,0.76,5.164,2.138c2.844,2.847,2.844,7.479,0.001,10.325l-5.122,5.122L35.368,33.248  L40.489,28.127z M33.288,52.952c-1.95,0-3.784-0.759-5.162-2.136c-2.846-2.849-2.846-7.481,0-10.327l5.121-5.121l10.325,10.325  l-5.121,5.121C37.072,52.193,35.238,52.952,33.288,52.952z"></path></svg>