<svg fill="#FAE2E1" xmlns="http://www.w3.org/2000/svg" data-name="Layer 1" viewBox="0 0 100 100" x="0px" y="0px"><title>50Icon_5px_grid2</title><path d="M55.74,49.7,40.42,61.47c-4,3.11-4.64,9.14-1.31,13.47s9.31,5.32,13.36,2.21L67.79,65.38c4-3.11,4.64-9.14,1.31-13.47S59.79,46.59,55.74,49.7Zm1.52,20.1L51.5,74.23A6.93,6.93,0,0,1,41.78,73l-.08-.11A6.88,6.88,0,0,1,43,63.19l5.94-4.56a2,2,0,0,1,2.82.37l6,7.75A2.17,2.17,0,0,1,57.27,69.8Zm5-3.87a1.47,1.47,0,0,1-1.62-2.45c5.84-3.87,4.76-6.27,4.75-6.29a1.44,1.44,0,0,1,.48-2,1.5,1.5,0,0,1,2,.5C68.17,56.14,70.52,60.43,62.23,65.92Z"></path><path d="M61.41,41.59A10.28,10.28,0,1,0,51.13,31.31,10.29,10.29,0,0,0,61.41,41.59Zm0-17.78a7.5,7.5,0,1,1-7.5,7.5A7.51,7.51,0,0,1,61.41,23.81Z"></path><path d="M56.4,30l8.36,5.36a1.63,1.63,0,1,0,1.76-2.75l-8.36-5.36A1.63,1.63,0,1,0,56.4,30Z"></path><path d="M48.87,42.87A10.28,10.28,0,1,0,38.59,53.15,10.29,10.29,0,0,0,48.87,42.87Zm-17.78,0a7.5,7.5,0,1,1,7.5,7.5A7.51,7.51,0,0,1,31.09,42.87Z"></path><path d="M42.18,37.27a1.63,1.63,0,0,0-2.26.49l-5.36,8.36a1.63,1.63,0,1,0,2.75,1.76l5.36-8.36A1.63,1.63,0,0,0,42.18,37.27Z"></path></svg>