<svg fill="#F9E2E1" xmlns="http://www.w3.org/2000/svg" xmlns:xlink="http://www.w3.org/1999/xlink" version="1.1" x="0px" y="0px" viewBox="0 0 100 100" style="enable-background:new 0 0 100 100;" xml:space="preserve"><style type="text/css">
	.st0{fill:#F9E2E1;}
	.st1{fill:#F9E2E1;}
	.st2{stroke:#F9E2E1;stroke-width:2;stroke-linecap:round;stroke-linejoin:round;stroke-miterlimit:10;}
	.st3{fill:#F9E2E1;}
	.st4{fill:none;stroke:#F9E2E1;stroke-miterlimit:10;}
	.st5{fill:#F9E2E1;}
	.st6{fill:none;stroke:#F9E2E1;stroke-width:4;stroke-linecap:round;stroke-linejoin:round;stroke-miterlimit:10;}
	.st7{fill:#F9E2E1;}
	.st8{fill:none;}
	.st9{fill:#F9E2E1;}
	.st10{fill:none;stroke:#F9E2E1;stroke-width:5.1;stroke-linecap:round;stroke-linejoin:round;stroke-miterlimit:10;}
	.st11{fill:none;stroke:#F9E2E1;stroke-width:4;stroke-miterlimit:10;}
	.st12{fill:none;stroke:#F9E2E1;stroke-width:3.9028;stroke-linecap:round;stroke-linejoin:round;stroke-miterlimit:10;}
	.st13{fill:none;stroke:#F9E2E1;stroke-width:2.9365;stroke-linecap:round;stroke-linejoin:round;stroke-miterlimit:10;}
	.st14{fill:none;stroke:#F9E2E1;stroke-width:0.5873;stroke-linecap:round;stroke-linejoin:round;stroke-miterlimit:10;}
	.st15{fill:none;stroke:#F9E2E1;stroke-width:5.8698;stroke-miterlimit:10;}
	.st16{fill:none;stroke:#F9E2E1;stroke-width:4.6136;stroke-miterlimit:10;}
	.st17{fill:none;stroke:#F9E2E1;stroke-width:2.9349;stroke-miterlimit:10;}
	.st18{fill:none;stroke:#F9E2E1;stroke-width:2.3068;stroke-miterlimit:10;}
	.st19{fill:none;stroke:#F9E2E1;stroke-width:0.9556;stroke-miterlimit:10;}
	.st20{fill:none;stroke:#F9E2E1;stroke-width:3.2643;stroke-miterlimit:10;}
	.st21{fill:none;stroke:#F9E2E1;stroke-width:3;stroke-miterlimit:10;}
	.st22{fill:none;stroke:#F9E2E1;stroke-width:2;stroke-linecap:round;stroke-linejoin:round;stroke-miterlimit:10;}
	.st23{fill:#F9E2E1;}
	.st24{fill:none;stroke:#F9E2E1;stroke-width:2;stroke-linecap:round;stroke-linejoin:round;stroke-miterlimit:10;}
	.st25{fill:#F9E2E1;}
	.st26{fill:#F9E2E1;stroke:#F9E2E1;stroke-width:2.5048;stroke-linecap:round;stroke-linejoin:round;stroke-miterlimit:10;}
	.st27{stroke:#F9E2E1;stroke-width:2.3956;stroke-miterlimit:10;}
	.st28{fill:none;stroke:#F9E2E1;stroke-width:3;stroke-linecap:round;stroke-linejoin:round;stroke-miterlimit:10;}
	.st29{fill:none;stroke:#F9E2E1;stroke-width:3.8305;stroke-linecap:round;stroke-linejoin:round;stroke-miterlimit:10;}
	.st30{fill:none;stroke:#F9E2E1;stroke-width:0.813;stroke-linecap:round;stroke-linejoin:round;stroke-miterlimit:10;}
	.st31{stroke:#F9E2E1;stroke-width:0.813;stroke-linecap:round;stroke-linejoin:round;stroke-miterlimit:10;}
	.st32{fill:none;stroke:#F9E2E1;stroke-width:5.4115;stroke-miterlimit:10;}
	.st33{fill:none;stroke:#F9E2E1;stroke-width:4;stroke-linecap:round;stroke-linejoin:round;stroke-miterlimit:10;}
	.st34{fill:none;stroke:#F9E2E1;stroke-width:3;stroke-linecap:round;stroke-linejoin:round;stroke-miterlimit:10;}
	.st35{fill:#F9E2E1;stroke:#F9E2E1;stroke-width:1.614;stroke-miterlimit:10;}
	.st36{fill:none;stroke:#F9E2E1;stroke-width:0.7622;stroke-miterlimit:10;}
	.st37{fill:none;stroke:#F9E2E1;stroke-width:1.6015;stroke-miterlimit:10;}
	.st38{fill:none;stroke:#F9E2E1;stroke-linecap:round;stroke-linejoin:round;stroke-miterlimit:10;}
	.st39{fill:none;stroke:#F9E2E1;stroke-width:2.5048;stroke-linecap:round;stroke-linejoin:round;stroke-miterlimit:10;}
	.st40{fill:none;stroke:#F9E2E1;stroke-width:2.0699;stroke-linecap:round;stroke-linejoin:round;stroke-miterlimit:10;}
	.st41{fill:#F9E2E1;stroke:#F9E2E1;stroke-width:1.6404;stroke-linecap:round;stroke-linejoin:round;stroke-miterlimit:10;}
	.st42{fill:#F9E2E1;stroke:#F9E2E1;stroke-width:2.5048;stroke-miterlimit:10;}
	.st43{clip-path:url(#SVGID_2_);}
	.st44{fill:#F9E2E1;stroke:#F9E2E1;stroke-linecap:round;stroke-linejoin:round;stroke-miterlimit:10;}
	.st45{clip-path:url(#SVGID_4_);}
	.st46{clip-path:url(#SVGID_6_);}
	.st47{fill:none;stroke:#F9E2E1;stroke-width:1.6154;stroke-linecap:round;stroke-linejoin:round;stroke-miterlimit:10;}
	.st48{fill:none;stroke:#F9E2E1;stroke-width:0.6567;stroke-linecap:round;stroke-linejoin:round;stroke-miterlimit:10;}
	.st49{stroke:#F9E2E1;stroke-width:0.6567;stroke-linecap:round;stroke-linejoin:round;stroke-miterlimit:10;}
	.st50{fill:none;stroke:#F9E2E1;stroke-width:1.288;stroke-linecap:round;stroke-linejoin:round;stroke-miterlimit:10;}
	.st51{fill:none;stroke:#F9E2E1;stroke-width:0.6704;stroke-linecap:round;stroke-linejoin:round;stroke-miterlimit:10;}
	.st52{fill:none;stroke:#F9E2E1;stroke-width:3.6712;stroke-linecap:round;stroke-linejoin:round;stroke-miterlimit:10;}
</style><g><circle class="st8" cx="68.2" cy="80.1" r="1.5"></circle><path class="st8" d="M80.3,67.6l-0.6-1.3L79,67.6c-0.1,0.1-0.2,0.2-0.4,0.3l-1.4,0.2l1,1c0.1,0.1,0.2,0.3,0.1,0.4l-0.2,1.4l1.3-0.7   c0.1,0,0.2-0.1,0.2-0.1s0.2,0,0.2,0.1l1.3,0.7l-0.2-1.4c0-0.2,0-0.3,0.1-0.4l1-1l-1.4-0.2C80.5,67.8,80.4,67.7,80.3,67.6z"></path><path class="st8" d="M75.5,33.1c0.1,0.1,0.2,0.3,0.1,0.4L75.4,35l1.3-0.7c0.1,0,0.2-0.1,0.2-0.1s0.2,0,0.2,0.1l1.3,0.7l-0.2-1.4   c0-0.2,0-0.3,0.1-0.4l1-1l-1.4-0.2c-0.2,0-0.3-0.1-0.4-0.3l-0.6-1.3l-0.6,1.3c-0.1,0.1-0.2,0.2-0.4,0.3l-1.4,0.2L75.5,33.1z"></path><path class="st8" d="M25.8,49.5l-0.6-1.3l-0.6,1.3c-0.1,0.1-0.2,0.2-0.4,0.3L22.7,50l1,1c0.1,0.1,0.2,0.3,0.1,0.4l-0.2,1.4l1.3-0.7   c0.1,0,0.2-0.1,0.2-0.1s0.2,0,0.2,0.1l1.3,0.7l-0.2-1.4c0-0.2,0-0.3,0.1-0.4l1-1l-1.4-0.2C26.1,49.7,25.9,49.6,25.8,49.5z"></path><circle class="st8" cx="65.2" cy="59.5" r="1.5"></circle><circle class="st8" cx="65.4" cy="44.1" r="1.5"></circle><circle class="st8" cx="62.5" cy="23.6" r="1.5"></circle><path class="st8" d="M26.7,87.4l-0.2,1.4l1.3-0.7c0.1,0,0.2-0.1,0.2-0.1s0.2,0,0.2,0.1l1.3,0.7l-0.2-1.4c0-0.2,0-0.3,0.1-0.4l1-1   L29,85.7c-0.2,0-0.3-0.1-0.4-0.3L28,84.1l-0.6,1.3c-0.1,0.1-0.2,0.2-0.4,0.3l-1.4,0.2l1,1C26.7,87.1,26.7,87.2,26.7,87.4z"></path><circle class="st8" cx="39.1" cy="70.5" r="1.5"></circle><circle class="st8" cx="36.3" cy="34.5" r="1.5"></circle><path class="st8" d="M40.5,15.9l-0.6-1.3l-0.6,1.3c-0.1,0.1-0.2,0.2-0.4,0.3l-1.4,0.2l1,1c0.1,0.1,0.2,0.3,0.1,0.4l-0.2,1.4   l1.3-0.7c0.1,0,0.2-0.1,0.2-0.1s0.2,0,0.2,0.1l1.3,0.7l-0.2-1.4c0-0.2,0-0.3,0.1-0.4l1-1l-1.4-0.2C40.7,16.2,40.6,16.1,40.5,15.9z"></path><path class="st8" d="M41.7,53.5l-0.3-0.6l-0.3,0.6c-0.1,0.1-0.2,0.2-0.4,0.3L40,53.8l0.5,0.5c0.1,0.1,0.2,0.3,0.1,0.4l-0.1,0.7   l0.6-0.3c0.1,0,0.2-0.1,0.2-0.1s0.2,0,0.2,0.1l0.6,0.3l-0.1-0.7c0-0.2,0-0.3,0.1-0.4l0.5-0.5l-0.7-0.1   C41.9,53.7,41.8,53.6,41.7,53.5z"></path><path d="M33.9,34.5c0,1.4,1.1,2.5,2.5,2.5s2.5-1.1,2.5-2.5c0-1.4-1.1-2.5-2.5-2.5S33.9,33.1,33.9,34.5z M36.3,33   c0.8,0,1.5,0.7,1.5,1.5S37.2,36,36.3,36s-1.5-0.7-1.5-1.5S35.5,33,36.3,33z"></path><path d="M65.4,41.7c-1.4,0-2.5,1.1-2.5,2.5c0,1.4,1.1,2.5,2.5,2.5s2.5-1.1,2.5-2.5C67.9,42.8,66.8,41.7,65.4,41.7z M65.4,45.6   c-0.8,0-1.5-0.7-1.5-1.5s0.7-1.5,1.5-1.5c0.8,0,1.5,0.7,1.5,1.5S66.2,45.6,65.4,45.6z"></path><path d="M62.5,21.1c-1.4,0-2.5,1.1-2.5,2.5c0,1.4,1.1,2.5,2.5,2.5s2.5-1.1,2.5-2.5C64.9,22.2,63.8,21.1,62.5,21.1z M62.5,25   c-0.8,0-1.5-0.7-1.5-1.5s0.7-1.5,1.5-1.5s1.5,0.7,1.5,1.5S63.3,25,62.5,25z"></path><path d="M43.5,15.6l-2.2-0.3l-1-2c-0.2-0.3-0.7-0.3-0.9,0l-1,2l-2.2,0.3c-0.2,0-0.3,0.2-0.4,0.3c-0.1,0.2,0,0.4,0.1,0.5l1.6,1.5   l-0.4,2.2c0,0.2,0,0.4,0.2,0.5c0.2,0.1,0.4,0.1,0.5,0l2-1l2,1c0.1,0,0.2,0.1,0.2,0.1c0.1,0,0.2,0,0.3-0.1c0.2-0.1,0.2-0.3,0.2-0.5   L42.2,18l1.6-1.5c0.1-0.1,0.2-0.3,0.1-0.5C43.8,15.7,43.7,15.6,43.5,15.6z M41.3,17.4c-0.1,0.1-0.2,0.3-0.1,0.4l0.2,1.4l-1.3-0.7   c-0.1,0-0.2-0.1-0.2-0.1s-0.2,0-0.2,0.1l-1.3,0.7l0.2-1.4c0-0.2,0-0.3-0.1-0.4l-1-1l1.4-0.2c0.2,0,0.3-0.1,0.4-0.3l0.6-1.3l0.6,1.3   c0.1,0.1,0.2,0.2,0.4,0.3l1.4,0.2L41.3,17.4z"></path><path d="M73.3,31.2c-0.2,0-0.3,0.2-0.4,0.3c-0.1,0.2,0,0.4,0.1,0.5l1.6,1.5l-0.4,2.2c0,0.2,0,0.4,0.2,0.5c0.2,0.1,0.4,0.1,0.5,0   l2-1l2,1c0.1,0,0.2,0.1,0.2,0.1c0.1,0,0.2,0,0.3-0.1c0.2-0.1,0.2-0.3,0.2-0.5l-0.4-2.2l1.6-1.5c0.1-0.1,0.2-0.3,0.1-0.5   c-0.1-0.2-0.2-0.3-0.4-0.3l-2.2-0.3l-1-2c-0.1-0.2-0.3-0.3-0.4-0.3s-0.4,0.1-0.4,0.3l-1,2L73.3,31.2z M76.2,31.6l0.6-1.3l0.6,1.3   c0.1,0.1,0.2,0.2,0.4,0.3l1.4,0.2l-1,1c-0.1,0.1-0.2,0.3-0.1,0.4l0.2,1.4l-1.3-0.7c-0.1,0-0.2-0.1-0.2-0.1s-0.2,0-0.2,0.1L75.4,35   l0.2-1.4c0-0.2,0-0.3-0.1-0.4l-1-1l1.4-0.2C76,31.8,76.2,31.7,76.2,31.6z"></path><path d="M29.2,49.5c-0.1-0.2-0.2-0.3-0.4-0.3l-2.2-0.3l-1-2c-0.2-0.3-0.7-0.3-0.9,0l-1,2l-2.2,0.3c-0.2,0-0.3,0.2-0.4,0.3   c-0.1,0.2,0,0.4,0.1,0.5l1.6,1.5l-0.4,2.2c0,0.2,0,0.4,0.2,0.5c0.2,0.1,0.4,0.1,0.5,0l2-1l2,1c0.1,0,0.2,0.1,0.2,0.1   c0.1,0,0.2,0,0.3-0.1c0.2-0.1,0.2-0.3,0.2-0.5l-0.4-2.2l1.6-1.5C29.2,49.8,29.3,49.6,29.2,49.5z M26.6,51c-0.1,0.1-0.2,0.3-0.1,0.4   l0.2,1.4l-1.3-0.7c-0.1,0-0.2-0.1-0.2-0.1s-0.2,0-0.2,0.1l-1.3,0.7l0.2-1.4c0-0.2,0-0.3-0.1-0.4l-1-1l1.4-0.2   c0.2,0,0.3-0.1,0.4-0.3l0.6-1.3l0.6,1.3c0.1,0.1,0.2,0.2,0.4,0.3l1.4,0.2L26.6,51z"></path><path d="M51.3,33c-0.3,0-0.5,0.3-0.4,0.6l0.8,5.4c0,0.2,0.3,0.4,0.5,0.4c0,0,0.1,0,0.1,0c0.3,0,0.5-0.3,0.4-0.6l-0.8-5.4   C51.8,33.1,51.6,33,51.3,33z"></path><path d="M76.6,50.7L73,53.4c-0.2,0.2-0.3,0.5-0.1,0.7c0.1,0.1,0.2,0.2,0.4,0.2c0.1,0,0.2,0,0.3-0.1l3.5-2.7   c0.2-0.2,0.3-0.5,0.1-0.7C77.1,50.5,76.8,50.5,76.6,50.7z"></path><path d="M16.4,33.2c-0.2,0.2-0.1,0.5,0.1,0.7l4.9,4c0.1,0.1,0.2,0.1,0.3,0.1c0.1,0,0.3-0.1,0.4-0.2c0.2-0.2,0.1-0.5-0.1-0.7l-4.9-4   C16.9,32.9,16.6,33,16.4,33.2z"></path><path d="M60,10c-0.2-0.2-0.5-0.3-0.7-0.1l-6.1,4.3c-0.2,0.2-0.3,0.5-0.1,0.7c0.1,0.1,0.3,0.2,0.4,0.2c0.1,0,0.2,0,0.3-0.1l6.1-4.3   C60.1,10.5,60.1,10.2,60,10z"></path><path d="M41.6,70.5c0-1.4-1.1-2.5-2.5-2.5s-2.5,1.1-2.5,2.5s1.1,2.5,2.5,2.5S41.6,71.8,41.6,70.5z M37.7,70.5   c0-0.8,0.7-1.5,1.5-1.5c0.8,0,1.5,0.7,1.5,1.5s-0.7,1.5-1.5,1.5C38.3,71.9,37.7,71.3,37.7,70.5z"></path><path d="M68.2,82.6c1.4,0,2.5-1.1,2.5-2.5s-1.1-2.5-2.5-2.5s-2.5,1.1-2.5,2.5S66.8,82.6,68.2,82.6z M68.2,78.6   c0.8,0,1.5,0.7,1.5,1.5s-0.7,1.5-1.5,1.5s-1.5-0.7-1.5-1.5S67.4,78.6,68.2,78.6z"></path><path d="M67.7,59.5c0-1.4-1.1-2.5-2.5-2.5s-2.5,1.1-2.5,2.5c0,1.4,1.1,2.5,2.5,2.5S67.7,60.9,67.7,59.5z M65.2,61   c-0.8,0-1.5-0.7-1.5-1.5s0.7-1.5,1.5-1.5s1.5,0.7,1.5,1.5S66.1,61,65.2,61z"></path><path d="M43.9,53l-1.4-0.2l-0.6-1.3c-0.2-0.3-0.7-0.3-0.9,0l-0.6,1.3L38.9,53c-0.2,0-0.3,0.2-0.4,0.3c-0.1,0.2,0,0.4,0.1,0.5l1,1   l-0.2,1.4c0,0.2,0,0.4,0.2,0.5c0.2,0.1,0.4,0.1,0.5,0l1.3-0.7l1.3,0.7c0.1,0,0.2,0.1,0.2,0.1c0.1,0,0.2,0,0.3-0.1   c0.2-0.1,0.2-0.3,0.2-0.5l-0.2-1.4l1-1c0.1-0.1,0.2-0.3,0.1-0.5C44.3,53.1,44.1,53,43.9,53z M42.3,54.3c-0.1,0.1-0.2,0.3-0.1,0.4   l0.1,0.7l-0.6-0.3c-0.1,0-0.2-0.1-0.2-0.1s-0.2,0-0.2,0.1l-0.6,0.3l0.1-0.7c0-0.2,0-0.3-0.1-0.4L40,53.8l0.7-0.1   c0.2,0,0.3-0.1,0.4-0.3l0.3-0.6l0.3,0.6c0.1,0.1,0.2,0.2,0.4,0.3l0.7,0.1L42.3,54.3z"></path><path d="M83.7,67.5c-0.1-0.2-0.2-0.3-0.4-0.3l-2.2-0.3l-1-2c-0.2-0.3-0.7-0.3-0.9,0l-1,2L76,67.2c-0.2,0-0.3,0.2-0.4,0.3   c-0.1,0.2,0,0.4,0.1,0.5l1.6,1.5L77,71.8c0,0.2,0,0.4,0.2,0.5c0.2,0.1,0.4,0.1,0.5,0l2-1l2,1c0.1,0,0.2,0.1,0.2,0.1   c0.1,0,0.2,0,0.3-0.1c0.2-0.1,0.2-0.3,0.2-0.5L82,69.6l1.6-1.5C83.7,67.9,83.7,67.7,83.7,67.5z M81.1,69.1   c-0.1,0.1-0.2,0.3-0.1,0.4l0.2,1.4l-1.3-0.7c-0.1,0-0.2-0.1-0.2-0.1s-0.2,0-0.2,0.1l-1.3,0.7l0.2-1.4c0-0.2,0-0.3-0.1-0.4l-1-1   l1.4-0.2c0.2,0,0.3-0.1,0.4-0.3l0.6-1.3l0.6,1.3c0.1,0.1,0.2,0.2,0.4,0.3l1.4,0.2L81.1,69.1z"></path><path d="M26,90.2l2-1l2,1c0.1,0,0.2,0.1,0.2,0.1c0.1,0,0.2,0,0.3-0.1c0.2-0.1,0.2-0.3,0.2-0.5l-0.4-2.2l1.6-1.5   c0.1-0.1,0.2-0.3,0.1-0.5c-0.1-0.2-0.2-0.3-0.4-0.3l-2.2-0.3l-1-2c-0.1-0.2-0.3-0.3-0.4-0.3s-0.4,0.1-0.4,0.3l-1,2l-2.2,0.3   c-0.2,0-0.3,0.2-0.4,0.3c-0.1,0.2,0,0.4,0.1,0.5l1.6,1.5l-0.4,2.2c0,0.2,0,0.4,0.2,0.5C25.7,90.3,25.9,90.3,26,90.2z M25.5,85.9   l1.4-0.2c0.2,0,0.3-0.1,0.4-0.3l0.6-1.3l0.6,1.3c0.1,0.1,0.2,0.2,0.4,0.3l1.4,0.2l-1,1c-0.1,0.1-0.2,0.3-0.1,0.4l0.2,1.4l-1.3-0.7   c-0.1,0-0.2-0.1-0.2-0.1s-0.2,0-0.2,0.1l-1.3,0.7l0.2-1.4c0-0.2,0-0.3-0.1-0.4L25.5,85.9z"></path><path d="M57.6,71.1c-0.1-0.3-0.4-0.4-0.6-0.3l-5.1,1.9c-0.3,0.1-0.4,0.4-0.3,0.6c0.1,0.2,0.3,0.3,0.5,0.3c0.1,0,0.1,0,0.2,0   l5.1-1.9C57.6,71.6,57.7,71.3,57.6,71.1z"></path><path d="M76.1,90.3c0.1,0,0.2,0,0.3-0.1l3.5-2.7c0.2-0.2,0.3-0.5,0.1-0.7c-0.2-0.2-0.5-0.3-0.7-0.1l-3.5,2.7   c-0.2,0.2-0.3,0.5-0.1,0.7C75.8,90.2,76,90.3,76.1,90.3z"></path><path d="M19.2,69.1c-0.2,0.2-0.1,0.5,0.1,0.7l4.9,4c0.1,0.1,0.2,0.1,0.3,0.1c0.1,0,0.3-0.1,0.4-0.2c0.2-0.2,0.1-0.5-0.1-0.7l-4.9-4   C19.7,68.9,19.4,68.9,19.2,69.1z"></path><path d="M76.2,16.2c0.1,0,0.3,0,0.4-0.1l1.1-1.1c0.2-0.2,0.2-0.5,0-0.7s-0.5-0.2-0.7,0l-1.1,1.1c-0.2,0.2-0.2,0.5,0,0.7   C76,16.2,76.1,16.2,76.2,16.2z"></path><path d="M72.5,19.5c0.1,0.1,0.2,0.1,0.4,0.1s0.3,0,0.4-0.1l1.1-1.1c0.2-0.2,0.2-0.5,0-0.7s-0.5-0.2-0.7,0l-1.1,1.1   C72.3,19,72.3,19.3,72.5,19.5z"></path><path d="M75.9,18.3l1.1,1.1c0.1,0.1,0.2,0.1,0.4,0.1s0.3,0,0.4-0.1c0.2-0.2,0.2-0.5,0-0.7l-1.1-1.1c-0.2-0.2-0.5-0.2-0.7,0   S75.7,18.1,75.9,18.3z"></path><path d="M73.6,16.1c0.1,0.1,0.2,0.1,0.4,0.1s0.3,0,0.4-0.1c0.2-0.2,0.2-0.5,0-0.7l-1.1-1.1c-0.2-0.2-0.5-0.2-0.7,0s-0.2,0.5,0,0.7   L73.6,16.1z"></path><path d="M19.2,14.1c0.3,0,0.5-0.2,0.5-0.5v-1.6c0-0.3-0.2-0.5-0.5-0.5s-0.5,0.2-0.5,0.5v1.6C18.7,13.9,19,14.1,19.2,14.1z"></path><path d="M18.7,18.4c0,0.3,0.2,0.5,0.5,0.5s0.5-0.2,0.5-0.5v-1.6c0-0.3-0.2-0.5-0.5-0.5s-0.5,0.2-0.5,0.5V18.4z"></path><path d="M22.4,14.7h-1.6c-0.3,0-0.5,0.2-0.5,0.5s0.2,0.5,0.5,0.5h1.6c0.3,0,0.5-0.2,0.5-0.5S22.7,14.7,22.4,14.7z"></path><path d="M17.6,14.7H16c-0.3,0-0.5,0.2-0.5,0.5s0.2,0.5,0.5,0.5h1.6c0.3,0,0.5-0.2,0.5-0.5S17.9,14.7,17.6,14.7z"></path><path d="M48.9,85.8c-0.2-0.2-0.5-0.2-0.7,0l-1.1,1.1c-0.2,0.2-0.2,0.5,0,0.7c0.1,0.1,0.2,0.1,0.4,0.1s0.3,0,0.4-0.1l1.1-1.1   C49.1,86.3,49.1,86,48.9,85.8z"></path><path d="M45.5,89.9c0.2-0.2,0.2-0.5,0-0.7s-0.5-0.2-0.7,0l-1.1,1.1c-0.2,0.2-0.2,0.5,0,0.7c0.1,0.1,0.2,0.1,0.4,0.1s0.3,0,0.4-0.1   L45.5,89.9z"></path><path d="M48.9,90.3l-1.1-1.1c-0.2-0.2-0.5-0.2-0.7,0s-0.2,0.5,0,0.7l1.1,1.1c0.1,0.1,0.2,0.1,0.4,0.1s0.3,0,0.4-0.1   C49.1,90.8,49.1,90.5,48.9,90.3z"></path><path d="M45.5,86.9l-1.1-1.1c-0.2-0.2-0.5-0.2-0.7,0s-0.2,0.5,0,0.7l1.1,1.1c0.1,0.1,0.2,0.1,0.4,0.1s0.3,0,0.4-0.1   C45.7,87.4,45.7,87.1,45.5,86.9z"></path><path d="M13.6,55.1c0.3,0,0.5-0.2,0.5-0.5V53c0-0.3-0.2-0.5-0.5-0.5s-0.5,0.2-0.5,0.5v1.6C13.1,54.9,13.3,55.1,13.6,55.1z"></path><path d="M13.6,59.9c0.3,0,0.5-0.2,0.5-0.5v-1.6c0-0.3-0.2-0.5-0.5-0.5s-0.5,0.2-0.5,0.5v1.6C13.1,59.7,13.3,59.9,13.6,59.9z"></path><path d="M14.7,56.2c0,0.3,0.2,0.5,0.5,0.5h1.6c0.3,0,0.5-0.2,0.5-0.5s-0.2-0.5-0.5-0.5h-1.6C14.9,55.7,14.7,55.9,14.7,56.2z"></path><path d="M10.4,56.7H12c0.3,0,0.5-0.2,0.5-0.5s-0.2-0.5-0.5-0.5h-1.6c-0.3,0-0.5,0.2-0.5,0.5S10.1,56.7,10.4,56.7z"></path><path d="M55.3,52.4c0.1,0,0.3,0,0.4-0.1l1.1-1.1c0.2-0.2,0.2-0.5,0-0.7s-0.5-0.2-0.7,0L55,51.5c-0.2,0.2-0.2,0.5,0,0.7   C55.1,52.3,55.2,52.4,55.3,52.4z"></path><path d="M52.7,53.8l-1.1,1.1c-0.2,0.2-0.2,0.5,0,0.7c0.1,0.1,0.2,0.1,0.4,0.1s0.3,0,0.4-0.1l1.1-1.1c0.2-0.2,0.2-0.5,0-0.7   S52.9,53.6,52.7,53.8z"></path><path d="M55,54.5l1.1,1.1c0.1,0.1,0.2,0.1,0.4,0.1s0.3,0,0.4-0.1c0.2-0.2,0.2-0.5,0-0.7l-1.1-1.1c-0.2-0.2-0.5-0.2-0.7,0   S54.8,54.3,55,54.5z"></path><path d="M53.4,51.5l-1.1-1.1c-0.2-0.2-0.5-0.2-0.7,0s-0.2,0.5,0,0.7l1.1,1.1c0.1,0.1,0.2,0.1,0.4,0.1s0.3,0,0.4-0.1   C53.6,52,53.6,51.7,53.4,51.5z"></path><path d="M85.4,51.4c0-0.3-0.2-0.5-0.5-0.5s-0.5,0.2-0.5,0.5V53c0,0.3,0.2,0.5,0.5,0.5s0.5-0.2,0.5-0.5V51.4z"></path><path d="M84.9,55.7c-0.3,0-0.5,0.2-0.5,0.5v1.6c0,0.3,0.2,0.5,0.5,0.5s0.5-0.2,0.5-0.5v-1.6C85.4,55.9,85.2,55.7,84.9,55.7z"></path><path d="M86,54.6c0,0.3,0.2,0.5,0.5,0.5h1.6c0.3,0,0.5-0.2,0.5-0.5s-0.2-0.5-0.5-0.5h-1.6C86.2,54.1,86,54.3,86,54.6z"></path><path d="M83.3,54.1h-1.6c-0.3,0-0.5,0.2-0.5,0.5s0.2,0.5,0.5,0.5h1.6c0.3,0,0.5-0.2,0.5-0.5S83.6,54.1,83.3,54.1z"></path></g></svg>