<svg fill="#FFF" xmlns="http://www.w3.org/2000/svg" xmlns:xlink="http://www.w3.org/1999/xlink" version="1.1" x="0px" y="0px" viewBox="0 0 100 100" enable-background="new 0 0 100 100" xml:space="preserve"><path fill="#FFF" d="M48.8,86.1c0.4,0.2,0.8,0.3,1.2,0.3s0.8-0.1,1.2-0.3c23.4-11.7,38.5-29.8,38.5-46.2  c0-17.3-11.6-26.3-22.9-26.3c-6.5,0-13.2,3.1-16.8,9.2c-3.5-6-10.2-9.2-16.8-9.2c-11.4,0-22.9,9-22.9,26.3  C10.3,56.3,25.4,74.4,48.8,86.1z M33.2,19c6.8,0,14.1,4.4,14.1,14.2c0,1.5,1.2,2.7,2.7,2.7s2.7-1.2,2.7-2.7  c0-9.8,7.3-14.2,14.1-14.2c8.5,0,17.6,6.5,17.6,20.9c0,14-13.4,29.9-34.3,40.8C29.1,69.9,15.7,54,15.7,39.9  C15.7,25.6,24.8,19,33.2,19z M30.5,45.9h-4.1c-1.5,0-2.7-1.2-2.7-2.7s1.2-2.7,2.7-2.7h4.1v-4.1c0-1.5,1.2-2.7,2.7-2.7  s2.6,1.3,2.6,2.8v4.1h4.1c1.5,0,2.7,1.2,2.7,2.7c0,1.5-1.2,2.7-2.7,2.7h-4.1v4c0,1.5-1.2,2.7-2.7,2.7c-1.5,0-2.7-1.2-2.7-2.7  L30.5,45.9L30.5,45.9z"></path></svg>